<?xml version="1.0" encoding="UTF-8" standalone="no"?>
<svg xmlns:dc="http://purl.org/dc/elements/1.1/" xmlns:cc="http://creativecommons.org/ns#" xmlns:rdf="http://www.w3.org/1999/02/22-rdf-syntax-ns#" xmlns:svg="http://www.w3.org/2000/svg" xmlns="http://www.w3.org/2000/svg" xmlns:sodipodi="http://sodipodi.sourceforge.net/DTD/sodipodi-0.dtd" xmlns:inkscape="http://www.inkscape.org/namespaces/inkscape" id="Layer_1" version="1.1" viewBox="0 0 900 400" xml:space="preserve" sodipodi:docname="how tor works.svg" width="900" height="400" inkscape:version="1.0.1 (3bc2e813f5, 2020-09-07)"><metadata id="metadata19"><rdf:RDF><cc:Work rdf:about=""><dc:format>image/svg+xml</dc:format><dc:type rdf:resource="http://purl.org/dc/dcmitype/StillImage"/><dc:title/></cc:Work></rdf:RDF></metadata><defs id="defs17"><inkscape:path-effect effect="spiro" id="path-effect5025" is_visible="true"/><inkscape:path-effect effect="spiro" id="path-effect5021" is_visible="true"/><inkscape:path-effect effect="bspline" id="path-effect5017" is_visible="true" weight="33.333333" steps="2" helper_size="0" apply_no_weight="true" apply_with_weight="true" only_selected="false"/><inkscape:path-effect effect="spiro" id="path-effect5011" is_visible="true"/><inkscape:path-effect effect="spiro" id="path-effect5007" is_visible="true"/><inkscape:path-effect effect="spiro" id="path-effect5003" is_visible="true"/><pattern y="0" x="0" height="6" width="6" patternUnits="userSpaceOnUse" id="EMFhbasepattern"/></defs><sodipodi:namedview pagecolor="#ffffff" bordercolor="#666666" borderopacity="1" objecttolerance="10" gridtolerance="10" guidetolerance="10" inkscape:pageopacity="0" inkscape:pageshadow="2" inkscape:window-width="1920" inkscape:window-height="1017" id="namedview15" showgrid="false" fit-margin-top="0" fit-margin-left="0" fit-margin-right="0" fit-margin-bottom="0" inkscape:zoom="1" inkscape:cx="528.90659" inkscape:cy="218.13256" inkscape:window-x="-8" inkscape:window-y="-8" inkscape:window-maximized="1" inkscape:current-layer="g5205" inkscape:document-rotation="0"/><style type="text/css" id="style2">
	.st0{fill:#2B79C2;}
	.st1{fill:#3B4652;}
</style><g id="g5205" transform="translate(-331.32066,-5.1415782)">






<g id="g4449" style="fill:#cccccc;stroke:#cccccc" transform="matrix(2.5614665,0,0,3.1125975,640.8941,-2915.6981)"><path id="path2844" d="m 104.7944,978.86598 c 0,13.52888 -13.79395,24.49622 -30.80965,24.49622 -17.01571,0 -30.80966,-10.96734 -30.80966,-24.49622 0,-13.52887 13.79395,-24.4962 30.80966,-24.4962 17.0157,0 30.80965,10.96733 30.80965,24.4962 z" style="fill:#cccccc;fill-opacity:1;fill-rule:nonzero;stroke:#cccccc"/><path id="path2844-3" d="m 103.42412,979.70978 c 0,13.43025 -13.23431,24.31762 -29.55965,24.31762 -16.32535,0 -29.55966,-10.88737 -29.55966,-24.31762 0,-13.43026 13.23431,-24.31763 29.55966,-24.31763 16.32534,0 29.55965,10.88737 29.55965,24.31763 z" style="fill:#cccccc;fill-opacity:1;fill-rule:nonzero;stroke:#cccccc"/><path id="path2844-9" d="m 106.05711,1009.9282 c 0,12.2736 -11.19345,22.2233 -25.00127,22.2233 -13.80783,0 -25.00128,-9.9497 -25.00128,-22.2233 0,-12.27363 11.19345,-22.22337 25.00128,-22.22337 13.80782,0 25.00127,9.94974 25.00127,22.22337 z" style="fill:#cccccc;fill-opacity:1;fill-rule:nonzero;stroke:#cccccc"/><path id="path2844-5" d="m 125.75508,992.7556 c 0,12.2736 -11.19345,22.2234 -25.00127,22.2234 -13.80783,0 -25.00128,-9.9498 -25.00128,-22.2234 0,-12.27362 11.19345,-22.22336 25.00128,-22.22336 13.80782,0 25.00127,9.94974 25.00127,22.22336 z" style="fill:#cccccc;fill-opacity:1;fill-rule:nonzero;stroke:#cccccc"/><path id="path2844-11" d="m 70.19668,999.82666 c 0,12.27364 -11.19345,22.22334 -25.00127,22.22334 -13.80783,0 -25.00128,-9.9497 -25.00128,-22.22334 0,-12.27362 11.19345,-22.22336 25.00128,-22.22336 13.80782,0 25.00127,9.94974 25.00127,22.22336 z" style="fill:#cccccc;fill-opacity:1;fill-rule:nonzero;stroke:#cccccc"/><path id="path2844-11-1" d="m 72.61576,1000.9598 c 0,12.2736 -11.47328,22.2233 -25.62628,22.2233 -14.153,0 -25.62627,-9.9497 -25.62627,-22.2233 0,-12.27364 11.47327,-22.22338 25.62627,-22.22338 14.153,0 25.62628,9.94974 25.62628,22.22338 z" style="fill:#cccccc;fill-opacity:1;fill-rule:nonzero;stroke:#cccccc"/><path id="path2844-1" d="m 40.3972,1019.2721 c 0,9.9026 -8.93215,17.9302 -19.95051,17.9302 -11.01837,0 -19.95051,-8.0276 -19.95051,-17.9302 0,-9.9026 8.93214,-17.9302 19.95051,-17.9302 11.01836,0 19.95051,8.0276 19.95051,17.9302 z" style="fill:#cccccc;fill-opacity:1;fill-rule:nonzero;stroke:#cccccc"/><path id="path2844-1-76" d="m 40.95786,1019.699 c 0,9.3048 -8.77225,16.8479 -19.59337,16.8479 -10.82112,0 -19.59338,-7.5431 -19.59338,-16.8479 0,-9.3049 8.77226,-16.848 19.59338,-16.848 10.82112,0 19.59337,7.5431 19.59337,16.848 z" style="fill:#cccccc;fill-opacity:1;fill-rule:nonzero;stroke:#cccccc"/><path id="path2844-5-4" d="m 126.18719,994.88834 c 0,12.86536 -11.39333,23.29476 -25.44771,23.29476 -14.05438,0 -25.44771,-10.4294 -25.44771,-23.29476 0,-12.86535 11.39333,-23.29478 25.44771,-23.29478 14.05438,0 25.44771,10.42943 25.44771,23.29478 z" style="fill:#cccccc;fill-opacity:1;fill-rule:nonzero;stroke:#cccccc"/><path id="path2844-2" d="m 150.50382,1000.3317 c 0,12.2737 -11.19345,22.2234 -25.00127,22.2234 -13.80783,0 -25.00128,-9.9497 -25.00128,-22.2234 0,-12.27358 11.19345,-22.22332 25.00128,-22.22332 13.80782,0 25.00127,9.94974 25.00127,22.22332 z" style="fill:#cccccc;fill-opacity:1;fill-rule:nonzero;stroke:#cccccc"/><path id="path2844-2-2" d="m 149.75861,1000.2455 c 0,11.5833 -11.2734,20.9733 -25.17984,20.9733 -13.90645,0 -25.17985,-9.39 -25.17985,-20.9733 0,-11.58327 11.2734,-20.97337 25.17985,-20.97337 13.90644,0 25.17984,9.3901 25.17984,20.97337 z" style="fill:#cccccc;fill-opacity:1;fill-rule:nonzero;stroke:#cccccc"/><path id="path2844-1-7" d="m 41.91242,1033.6668 c 0,6.5552 -5.201,11.8693 -11.61676,11.8693 -6.41575,0 -11.61675,-5.3141 -11.61675,-11.8693 0,-6.5553 5.201,-11.8693 11.61675,-11.8693 6.41576,0 11.61676,5.314 11.61676,11.8693 z" style="fill:#cccccc;fill-opacity:1;fill-rule:nonzero;stroke:#cccccc"/><path id="path2844-1-7-2" d="m 42.26694,1032.9241 c 0,6.4566 -5.12105,11.6907 -11.43818,11.6907 -6.31714,0 -11.43819,-5.2341 -11.43819,-11.6907 0,-6.4566 5.12105,-11.6908 11.43819,-11.6908 6.31713,0 11.43818,5.2342 11.43818,11.6908 z" style="fill:#cccccc;fill-opacity:1;fill-rule:nonzero;stroke:#cccccc"/><path id="path2844-4" d="m 84.33882,1030.1312 c 0,12.2737 -11.19345,22.2234 -25.00127,22.2234 -13.80783,0 -25.00128,-9.9497 -25.00128,-22.2234 0,-12.2736 11.19345,-22.2233 25.00128,-22.2233 13.80782,0 25.00127,9.9497 25.00127,22.2233 z" style="fill:#cccccc;fill-opacity:1;fill-rule:nonzero;stroke:#cccccc"/><path id="path2844-4-2" d="m 84.47542,1029.5542 c 0,12.0144 -10.93019,21.7539 -24.41325,21.7539 -13.48308,0 -24.41327,-9.7395 -24.41327,-21.7539 0,-12.0144 10.93019,-21.754 24.41327,-21.754 13.48306,0 24.41325,9.7396 24.41325,21.754 z" style="fill:#cccccc;fill-opacity:1;fill-rule:nonzero;stroke:#cccccc"/><path id="path2844-8" d="m 139.39213,1020.0297 c 0,12.2736 -11.19345,22.2234 -25.00127,22.2234 -13.80783,0 -25.00128,-9.9498 -25.00128,-22.2234 0,-12.2736 11.19345,-22.22335 25.00128,-22.22335 13.80782,0 25.00127,9.94975 25.00127,22.22335 z" style="fill:#cccccc;fill-opacity:1;fill-rule:nonzero;stroke:#cccccc"/><path id="path2844-8-1" d="m 138.06218,1019.7544 c 0,11.8052 -11.21344,21.3752 -25.04592,21.3752 -13.83248,0 -25.04591,-9.57 -25.04591,-21.3752 0,-11.8051 11.21343,-21.37511 25.04591,-21.37511 13.83248,0 25.04592,9.57001 25.04592,21.37511 z" style="fill:#cccccc;fill-opacity:1;fill-rule:nonzero;stroke:#cccccc"/><path id="path2844-1-7-6" d="m 90.95831,1047.975 c -7.9716,1.3183 -15.50224,-3.8048 -16.82016,-11.4427 -1.31791,-7.638 4.07596,-14.8984 12.04756,-16.2166 7.9716,-1.3183 15.50224,3.8048 16.82016,11.4428 1.31792,7.6379 -4.07596,14.8983 -12.04756,16.2165 z" style="fill:#cccccc;fill-opacity:1;fill-rule:nonzero;stroke:#cccccc"/><path id="path2844-1-7-6-5" d="m 91.26841,1046.5778 c -7.83783,1.3182 -15.2421,-3.8049 -16.5379,-11.4428 -1.2958,-7.6379 4.00756,-14.8984 11.84539,-16.2166 7.83783,-1.3183 15.24211,3.8048 16.53791,11.4428 1.29579,7.6379 -4.00757,14.8983 -11.8454,16.2166 z" style="fill:#cccccc;fill-opacity:1;fill-rule:nonzero;stroke:#cccccc"/></g><path inkscape:connector-curvature="0" id="path5037" d="M 523.2579,135.22901 C 604.60568,154.07328 693.27766,80.407316 813.93461,81.651912" style="fill:none;stroke:#008000;stroke-width:12.2569;stroke-linecap:butt;stroke-linejoin:miter;stroke-miterlimit:4;stroke-dasharray:none;stroke-opacity:1" sodipodi:nodetypes="cc"/><path inkscape:connector-curvature="0" id="path5039" d="m 715.68898,215.03058 c 4.25636,-84.62946 116.50247,-38.54508 128.66565,-99.08087" style="fill:none;stroke:#008000;stroke-width:11.7681;stroke-linecap:butt;stroke-linejoin:miter;stroke-miterlimit:4;stroke-dasharray:none;stroke-opacity:1" sodipodi:nodetypes="cc"/><path inkscape:connector-curvature="0" class="st1" d="m 876.70088,41.971231 h -62.32732 c -2.09983,0 -3.80715,1.707329 -3.80715,3.807147 V 59.43701 c 0,2.099819 1.70732,3.807148 3.80715,3.807148 h 29.78994 v 6.417202 h -29.78994 c -2.09983,0 -3.80715,1.707329 -3.80715,3.807148 V 87.12714 c 0,2.099818 1.70732,3.807145 3.80715,3.807145 h 29.78994 v 6.417199 h -29.78994 c -2.09983,0 -3.80715,1.707329 -3.80715,3.807146 v 13.65864 c 0,2.09983 1.70732,3.80715 3.80715,3.80715 h 29.78994 v 3.5324 c 0.45136,-0.0784 0.90273,-0.11779 1.37372,-0.11779 0.47098,0 0.92235,0.0392 1.37371,0.11779 v -3.5324 h 29.78995 c 2.09981,0 3.80714,-1.70732 3.80714,-3.80715 v -13.65864 c 0,-2.099817 -1.70733,-3.807146 -3.80714,-3.807146 h -29.78995 v -6.417199 h 29.78995 c 2.09981,0 3.80714,-1.707327 3.80714,-3.807145 V 73.468508 c 0,-2.099819 -1.70733,-3.807148 -3.80714,-3.807148 h -29.78995 v -6.417202 h 29.78995 c 2.09981,0 3.80714,-1.707329 3.80714,-3.807148 V 45.778378 c 0,-2.099818 -1.70733,-3.807147 -3.80714,-3.807147 z m -54.63454,67.351189 h -5.51447 c -0.76536,0 -1.37371,-0.60836 -1.37371,-1.37372 0,-0.76535 0.60835,-1.37371 1.37371,-1.37371 h 5.51447 c 0.76537,0 1.37373,0.60836 1.37373,1.37371 0,0.76536 -0.60836,1.37372 -1.37373,1.37372 z m 9.75337,0 h -5.51447 c -0.76537,0 -1.37372,-0.60836 -1.37372,-1.37372 0,-0.76535 0.60835,-1.37371 1.37372,-1.37371 h 5.51447 c 0.76536,0 1.37371,0.60836 1.37371,1.37371 0,0.76536 -0.60835,1.37372 -1.37371,1.37372 z m 38.24809,-5.80885 c 2.45307,0 4.43514,1.98208 4.43514,4.43513 0,2.45307 -1.98207,4.43513 -4.43514,4.43513 -2.45306,0 -4.43513,-1.98206 -4.43513,-4.43513 0,-2.45305 1.98207,-4.43513 4.43513,-4.43513 z M 822.06634,81.651912 h -5.51447 c -0.76536,0 -1.37371,-0.608358 -1.37371,-1.373713 0,-0.765355 0.60835,-1.373712 1.37371,-1.373712 h 5.51447 c 0.76537,0 1.37373,0.608357 1.37373,1.373712 0,0.765355 -0.60836,1.373713 -1.37373,1.373713 z m 9.75337,0 h -5.51447 c -0.76537,0 -1.37372,-0.608358 -1.37372,-1.373713 0,-0.765355 0.60835,-1.373712 1.37372,-1.373712 h 5.51447 c 0.76536,0 1.37371,0.608357 1.37371,1.373712 0,0.765355 -0.60835,1.373713 -1.37371,1.373713 z m 38.24809,-5.828467 c 2.45307,0 4.43514,1.982071 4.43514,4.43513 0,2.453058 -1.98207,4.43513 -4.43514,4.43513 -2.45306,0 -4.43513,-1.982072 -4.43513,-4.43513 0,-2.453059 1.98207,-4.43513 4.43513,-4.43513 z M 822.06634,53.981407 h -5.51447 c -0.76536,0 -1.37371,-0.608358 -1.37371,-1.373713 0,-0.765353 0.60835,-1.373712 1.37371,-1.373712 h 5.51447 c 0.76537,0 1.37373,0.608359 1.37373,1.373712 0,0.765355 -0.60836,1.373713 -1.37373,1.373713 z m 9.75337,0 h -5.51447 c -0.76537,0 -1.37372,-0.608358 -1.37372,-1.373713 0,-0.765353 0.60835,-1.373712 1.37372,-1.373712 h 5.51447 c 0.76536,0 1.37371,0.608359 1.37371,1.373712 0,0.765355 -0.60835,1.373713 -1.37371,1.373713 z m 38.24809,3.061417 c -2.45306,0 -4.43513,-1.982071 -4.43513,-4.43513 0,-2.453058 1.98207,-4.43513 4.43513,-4.43513 2.45307,0 4.43514,1.982072 4.43514,4.43513 0.0196,2.453059 -1.98207,4.43513 -4.43514,4.43513 z" id="path4-4" style="fill:#3b4652;stroke-width:0.196245"/><g transform="matrix(1.2256927,0,0,1.2256927,-139.59762,-154.92161)" id="g4864"><g id="g8" transform="matrix(0.278452,0,0,0.278452,409.18301,157.78392)"><path style="fill:#2b79c2" inkscape:connector-curvature="0" id="path4" d="M 290.4,103.5 H 54.9 c -15,0 -27.2,12.2 -27.2,27.2 v 145.2 h 290 V 130.7 c -0.1,-15.1 -12.2,-27.2 -27.3,-27.2 z" class="st0"/><path style="fill:#3b4652" inkscape:connector-curvature="0" id="path6" d="m 27.7,304.7 c 0,15 12.2,27.2 27.2,27.2 h 94.9 v 62.7 h -26.7 c -3.9,0 -7,3.1 -7,7 0,3.9 3.1,7 7,7 h 99 c 3.9,0 7,-3.1 7,-7 0,-3.9 -3.1,-7 -7,-7 h -27.7 v -62.7 h 95.9 c 15,0 27.2,-12.2 27.2,-27.2 v -14.8 h -290 v 14.8 z" class="st1"/></g><path style="fill:#3b4652;stroke-width:0.278452" inkscape:connector-curvature="0" id="path10" d="M 540.44528,186.57586 H 512.1824 c -1.977,0 -3.59203,1.61502 -3.59203,3.59203 v 76.21231 c 0,1.97701 1.61503,3.59203 3.59203,3.59203 h 28.29073 c 1.97701,0 3.59203,-1.61502 3.59203,-3.59203 v -76.21231 c -0.0278,-1.97701 -1.64287,-3.59203 -3.61988,-3.59203 z m -24.47593,15.0921 h 20.68899 v 11.41653 h -20.68899 z m 10.33057,53.96399 c -3.28573,0 -5.95887,-2.67314 -5.95887,-5.95887 0,-3.28573 2.67314,-5.95887 5.95887,-5.95887 3.28573,0 5.95887,2.67314 5.95887,5.95887 0,3.28573 -2.64529,5.95887 -5.95887,5.95887 z m 10.35842,-34.02683 h -20.68899 c -1.08596,0 -1.94916,-0.8632 -1.94916,-1.94917 0,-1.08596 0.8632,-1.94916 1.94916,-1.94916 h 20.68899 c 1.08596,0 1.94916,0.8632 1.94916,1.94916 0,1.08597 -0.8632,1.94917 -1.94916,1.94917 z" class="st1"/></g><path sodipodi:nodetypes="cc" inkscape:connector-curvature="0" id="path5041" d="m 730.85687,253.37091 c 95.11297,34.02558 49.11217,86.06989 180.2922,75.13822" style="fill:none;stroke:#008000;stroke-width:12.2569;stroke-linecap:butt;stroke-linejoin:miter;stroke-miterlimit:4;stroke-dasharray:none;stroke-opacity:1"/><path style="fill:#3b4652;stroke-width:0.196245" id="path4893" d="m 729.61776,213.5682 h -62.32732 c -2.09982,0 -3.80715,1.70733 -3.80715,3.80716 v 13.65862 c 0,2.09982 1.70733,3.80715 3.80715,3.80715 h 29.78994 v 6.4172 h -29.78994 c -2.09982,0 -3.80715,1.70732 -3.80715,3.80715 v 13.65864 c 0,2.09981 1.70733,3.80714 3.80715,3.80714 h 29.78994 v 6.41721 h -29.78994 c -2.09982,0 -3.80715,1.70733 -3.80715,3.80714 v 13.65864 c 0,2.09981 1.70733,3.80714 3.80715,3.80714 h 29.78994 v 3.53241 c 0.45136,-0.0784 0.90273,-0.11779 1.37373,-0.11779 0.47097,0 0.92234,0.0392 1.3737,0.11779 v -3.53241 h 29.78995 c 2.09982,0 3.80714,-1.70733 3.80714,-3.80714 v -13.65864 c 0,-2.09981 -1.70732,-3.80714 -3.80714,-3.80714 h -29.78995 v -6.41721 h 29.78995 c 2.09982,0 3.80714,-1.70733 3.80714,-3.80714 v -13.65864 c 0,-2.09983 -1.70732,-3.80715 -3.80714,-3.80715 h -29.78995 v -6.4172 h 29.78995 c 2.09982,0 3.80714,-1.70733 3.80714,-3.80715 v -13.65862 c 0,-2.09983 -1.70732,-3.80716 -3.80714,-3.80716 z m -54.63453,67.35118 h -5.51447 c -0.76537,0 -1.37372,-0.60836 -1.37372,-1.3737 0,-0.76536 0.60835,-1.37372 1.37372,-1.37372 h 5.51447 c 0.76536,0 1.37372,0.60836 1.37372,1.37372 0,0.76534 -0.60836,1.3737 -1.37372,1.3737 z m 9.75336,0 h -5.51447 c -0.76536,0 -1.37371,-0.60836 -1.37371,-1.3737 0,-0.76536 0.60835,-1.37372 1.37371,-1.37372 h 5.51447 c 0.76536,0 1.37371,0.60836 1.37371,1.37372 0,0.76534 -0.60835,1.3737 -1.37371,1.3737 z m 38.2481,-5.80883 c 2.45307,0 4.43513,1.98207 4.43513,4.43513 0,2.45305 -1.98206,4.43513 -4.43513,4.43513 -2.45306,0 -4.43514,-1.98208 -4.43514,-4.43513 0,-2.45306 1.98208,-4.43513 4.43514,-4.43513 z m -48.00146,-21.86166 h -5.51447 c -0.76537,0 -1.37372,-0.60836 -1.37372,-1.37372 0,-0.76535 0.60835,-1.37371 1.37372,-1.37371 h 5.51447 c 0.76536,0 1.37372,0.60836 1.37372,1.37371 0,0.76536 -0.60836,1.37372 -1.37372,1.37372 z m 9.75336,0 h -5.51447 c -0.76536,0 -1.37371,-0.60836 -1.37371,-1.37372 0,-0.76535 0.60835,-1.37371 1.37371,-1.37371 h 5.51447 c 0.76536,0 1.37371,0.60836 1.37371,1.37371 0,0.76536 -0.60835,1.37372 -1.37371,1.37372 z m 38.2481,-5.82848 c 2.45307,0 4.43513,1.98208 4.43513,4.43514 0,2.45306 -1.98206,4.43513 -4.43513,4.43513 -2.45306,0 -4.43514,-1.98207 -4.43514,-4.43513 0,-2.45306 1.98208,-4.43514 4.43514,-4.43514 z m -48.00146,-21.84203 h -5.51447 c -0.76537,0 -1.37372,-0.60836 -1.37372,-1.37371 0,-0.76536 0.60835,-1.37371 1.37372,-1.37371 h 5.51447 c 0.76536,0 1.37372,0.60835 1.37372,1.37371 0,0.76535 -0.60836,1.37371 -1.37372,1.37371 z m 9.75336,0 h -5.51447 c -0.76536,0 -1.37371,-0.60836 -1.37371,-1.37371 0,-0.76536 0.60835,-1.37371 1.37371,-1.37371 h 5.51447 c 0.76536,0 1.37371,0.60835 1.37371,1.37371 0,0.76535 -0.60835,1.37371 -1.37371,1.37371 z m 38.2481,3.06141 c -2.45306,0 -4.43514,-1.98206 -4.43514,-4.43512 0,-2.45306 1.98208,-4.43513 4.43514,-4.43513 2.45307,0 4.43513,1.98207 4.43513,4.43513 0.0196,2.45306 -1.98206,4.43512 -4.43513,4.43512 z" class="st1" inkscape:connector-curvature="0"/><path inkscape:connector-curvature="0" id="path5043" d="M 977.83408,329.14814 C 1099.1402,342.55706 1022.0213,175.6567 1111.0953,175.20435" style="fill:#ffffff;stroke:#ff0000;stroke-width:11.4966;stroke-linecap:butt;stroke-linejoin:miter;stroke-miterlimit:4;stroke-dasharray:22.9933, 11.4966;stroke-dashoffset:1;stroke-opacity:1"/><path inkscape:connector-curvature="0" class="st1" d="m 975.56136,287.10976 h -62.32732 c -2.09981,0 -3.80714,1.70733 -3.80714,3.80715 v 13.65862 c 0,2.09983 1.70733,3.80716 3.80714,3.80716 h 29.78994 v 6.41719 h -29.78994 c -2.09981,0 -3.80714,1.70733 -3.80714,3.80716 v 13.65864 c 0,2.09981 1.70733,3.80714 3.80714,3.80714 h 29.78994 v 6.41721 h -29.78994 c -2.09981,0 -3.80714,1.70732 -3.80714,3.80714 v 13.65863 c 0,2.09982 1.70733,3.80715 3.80714,3.80715 h 29.78994 v 3.5324 c 0.45137,-0.0784 0.90273,-0.11778 1.37373,-0.11778 0.47098,0 0.92234,0.0392 1.3737,0.11778 v -3.5324 h 29.78995 c 2.09982,0 3.80714,-1.70733 3.80714,-3.80715 v -13.65863 c 0,-2.09982 -1.70732,-3.80714 -3.80714,-3.80714 h -29.78995 v -6.41721 h 29.78995 c 2.09982,0 3.80714,-1.70733 3.80714,-3.80714 v -13.65864 c 0,-2.09983 -1.70732,-3.80716 -3.80714,-3.80716 h -29.78995 v -6.41719 h 29.78995 c 2.09982,0 3.80714,-1.70733 3.80714,-3.80716 v -13.65862 c 0,-2.09982 -1.70732,-3.80715 -3.80714,-3.80715 z m -54.63452,67.35118 h -5.51448 c -0.76537,0 -1.37371,-0.60836 -1.37371,-1.3737 0,-0.76536 0.60834,-1.37372 1.37371,-1.37372 h 5.51448 c 0.76535,0 1.37371,0.60836 1.37371,1.37372 0,0.76534 -0.60836,1.3737 -1.37371,1.3737 z m 9.75336,0 h -5.51448 c -0.76536,0 -1.3737,-0.60836 -1.3737,-1.3737 0,-0.76536 0.60834,-1.37372 1.3737,-1.37372 h 5.51448 c 0.76535,0 1.3737,0.60836 1.3737,1.37372 0,0.76534 -0.60835,1.3737 -1.3737,1.3737 z m 38.24808,-5.80883 c 2.45308,0 4.43514,1.98207 4.43514,4.43513 0,2.45305 -1.98206,4.43513 -4.43514,4.43513 -2.45306,0 -4.43512,-1.98208 -4.43512,-4.43513 0,-2.45306 1.98206,-4.43513 4.43512,-4.43513 z m -48.00144,-21.86166 h -5.51448 c -0.76537,0 -1.37371,-0.60836 -1.37371,-1.37373 0,-0.76534 0.60834,-1.3737 1.37371,-1.3737 h 5.51448 c 0.76535,0 1.37371,0.60836 1.37371,1.3737 0,0.76537 -0.60836,1.37373 -1.37371,1.37373 z m 9.75336,0 h -5.51448 c -0.76536,0 -1.3737,-0.60836 -1.3737,-1.37373 0,-0.76534 0.60834,-1.3737 1.3737,-1.3737 h 5.51448 c 0.76535,0 1.3737,0.60836 1.3737,1.3737 0,0.76537 -0.60835,1.37373 -1.3737,1.37373 z m 38.24808,-5.82848 c 2.45308,0 4.43514,1.98208 4.43514,4.43514 0,2.45306 -1.98206,4.43513 -4.43514,4.43513 -2.45306,0 -4.43512,-1.98207 -4.43512,-4.43513 0,-2.45306 1.98206,-4.43514 4.43512,-4.43514 z m -48.00144,-21.84203 h -5.51448 c -0.76537,0 -1.37371,-0.60836 -1.37371,-1.37371 0,-0.76536 0.60834,-1.37371 1.37371,-1.37371 h 5.51448 c 0.76535,0 1.37371,0.60835 1.37371,1.37371 0,0.76535 -0.60836,1.37371 -1.37371,1.37371 z m 9.75336,0 h -5.51448 c -0.76536,0 -1.3737,-0.60836 -1.3737,-1.37371 0,-0.76536 0.60834,-1.37371 1.3737,-1.37371 h 5.51448 c 0.76535,0 1.3737,0.60835 1.3737,1.37371 0,0.76535 -0.60835,1.37371 -1.3737,1.37371 z m 38.24808,3.06141 c -2.45306,0 -4.43512,-1.98206 -4.43512,-4.43512 0,-2.45306 1.98206,-4.43513 4.43512,-4.43513 2.45308,0 4.43514,1.98207 4.43514,4.43513 0.0196,2.45306 -1.98206,4.43512 -4.43514,4.43512 z" id="path4903" style="fill:#3b4652;stroke-width:0.196245"/><g transform="matrix(0.19624472,0,0,0.19624472,1089.4648,136.63161)" id="g4921"><path inkscape:connector-curvature="0" class="st1" d="M 414.8,17.3 H 97.2 C 86.5,17.3 77.8,26 77.8,36.7 v 69.6 c 0,10.7 8.7,19.4 19.4,19.4 H 249 v 32.7 H 97.2 c -10.7,0 -19.4,8.7 -19.4,19.4 v 69.6 c 0,10.7 8.7,19.4 19.4,19.4 H 249 v 32.7 H 97.2 c -10.7,0 -19.4,8.7 -19.4,19.4 v 69.6 c 0,10.7 8.7,19.4 19.4,19.4 H 249 v 18 c 2.3,-0.4 4.6,-0.6 7,-0.6 2.4,0 4.7,0.2 7,0.6 v -18 h 151.8 c 10.7,0 19.4,-8.7 19.4,-19.4 v -69.6 c 0,-10.7 -8.7,-19.4 -19.4,-19.4 H 263 v -32.7 h 151.8 c 10.7,0 19.4,-8.7 19.4,-19.4 v -69.6 c 0,-10.7 -8.7,-19.4 -19.4,-19.4 H 263 v -32.7 h 151.8 c 10.7,0 19.4,-8.7 19.4,-19.4 V 36.7 C 434.2,26 425.5,17.3 414.8,17.3 Z M 136.4,360.5 h -28.1 c -3.9,0 -7,-3.1 -7,-7 0,-3.9 3.1,-7 7,-7 h 28.1 c 3.9,0 7,3.1 7,7 0,3.9 -3.1,7 -7,7 z m 49.7,0 H 158 c -3.9,0 -7,-3.1 -7,-7 0,-3.9 3.1,-7 7,-7 h 28.1 c 3.9,0 7,3.1 7,7 0,3.9 -3.1,7 -7,7 z M 381,330.9 c 12.5,0 22.6,10.1 22.6,22.6 0,12.5 -10.1,22.6 -22.6,22.6 -12.5,0 -22.6,-10.1 -22.6,-22.6 0,-12.5 10.1,-22.6 22.6,-22.6 z M 136.4,219.5 h -28.1 c -3.9,0 -7,-3.1 -7,-7 0,-3.9 3.1,-7 7,-7 h 28.1 c 3.9,0 7,3.1 7,7 0,3.9 -3.1,7 -7,7 z m 49.7,0 H 158 c -3.9,0 -7,-3.1 -7,-7 0,-3.9 3.1,-7 7,-7 h 28.1 c 3.9,0 7,3.1 7,7 0,3.9 -3.1,7 -7,7 z M 381,189.8 c 12.5,0 22.6,10.1 22.6,22.6 0,12.5 -10.1,22.6 -22.6,22.6 -12.5,0 -22.6,-10.1 -22.6,-22.6 0,-12.5 10.1,-22.6 22.6,-22.6 z M 136.4,78.5 h -28.1 c -3.9,0 -7,-3.1 -7,-7 0,-3.9 3.1,-7 7,-7 h 28.1 c 3.9,0 7,3.1 7,7 0,3.9 -3.1,7 -7,7 z m 49.7,0 H 158 c -3.9,0 -7,-3.1 -7,-7 0,-3.9 3.1,-7 7,-7 h 28.1 c 3.9,0 7,3.1 7,7 0,3.9 -3.1,7 -7,7 z M 381,94.1 c -12.5,0 -22.6,-10.1 -22.6,-22.6 0,-12.5 10.1,-22.6 22.6,-22.6 12.5,0 22.6,10.1 22.6,22.6 0.1,12.5 -10.1,22.6 -22.6,22.6 z" id="path4913" style="fill:#3b4652"/><circle r="27.799999" class="st0" cx="256" cy="466.79999" id="circle4915" style="fill:#2b79c2"/><path inkscape:connector-curvature="0" class="st0" d="m 406.3,439 c -13,0 -23.9,8.9 -27,20.9 -0.3,0 -0.6,-0.1 -0.9,-0.1 h -81.3 c 0.4,2.3 0.6,4.6 0.6,7 0,2.4 -0.2,4.7 -0.6,7 h 81.3 c 0.3,0 0.6,0 0.9,-0.1 3.1,12 14,20.9 27,20.9 15.4,0 27.8,-12.5 27.8,-27.8 0.1,-15.3 -12.4,-27.8 -27.8,-27.8 z" id="path4917" style="fill:#2b79c2"/><path inkscape:connector-curvature="0" class="st0" d="m 133.5,459.8 c -0.3,0 -0.6,0 -0.9,0.1 -3.1,-12 -14,-20.9 -27,-20.9 -15.4,0 -27.8,12.5 -27.8,27.8 0,15.4 12.5,27.8 27.8,27.8 13,0 23.9,-8.9 27,-20.9 0.3,0 0.6,0.1 0.9,0.1 h 81.3 c -0.4,-2.3 -0.6,-4.6 -0.6,-7 0,-2.4 0.2,-4.7 0.6,-7 z" id="path4919" style="fill:#2b79c2"/></g><g style="stroke:#591e73;stroke-opacity:0.921569" id="g5009" transform="matrix(0.40747165,0,0,0.40747165,816.95502,-5.4723472)"><path d="m 231.68397,121.4025 -4.917,19.529 c 6.965,-13.793 18.027,-24.172 30.729,-33.323 -9.287,10.789 -17.754,21.579 -22.944,32.368 8.741,-12.292 20.486,-19.12 33.733,-23.627 -17.618,15.706 -31.60228,32.55928 -42.25528,49.49428 l -8.467,-3.687 c 1.501,-13.521 6.60928,-27.36928 14.12128,-40.75428 z" id="path2554" style="fill:#591f73;fill-opacity:0.921569;stroke:#591e73;stroke-opacity:0.921569" inkscape:connector-curvature="0"/><g style="display:inline;fill:#7d4798;fill-opacity:0.921569;stroke:#591e73;stroke-opacity:0.921569" id="layer4" transform="translate(-32.829031,43.424729)"><path inkscape:connector-curvature="0" id="path2538" d="m 255.226,120.58877 12.018,1.639 c -3.551,11.745 6.966,19.939 10.38,21.852 7.64801,4.234 15.02301,8.604 20.89601,13.93 11.063,10.106 17.345,24.31 17.345,39.333 0,14.886 -6.829,29.226 -18.301,38.786 -10.789,9.014 -25.67501,12.838 -40.15201,12.838 -9.014,0 -17.072,-0.409 -25.812,-3.278 -19.939,-6.692 -34.826,-23.763 -36.055,-44.25 -1.093,-15.979 2.458,-28.134 14.887,-40.835 6.418,-6.692 19.393,-14.34 28.271,-20.486 4.371,-3.005 9.014,-11.473 0.136,-27.451 l 1.776,-1.366 13.15659,8.81203 -11.10759,-4.57803 c 0.956,1.366 3.551,7.512 4.098,9.287 1.229,5.053 0.683,9.971 -0.41,12.155 -5.599,10.107 -15.159,12.838 -22.124,18.574 -12.292,10.106 -25.676,18.164 -24.174,45.888 0.683,13.657 11.336,30.319 27.314,38.104 9.014,4.371 19.394,6.146 29.91,6.692 9.423,0.41 27.45101,-5.19 37.28401,-13.384 10.516,-8.74 16.389,-21.988 16.389,-35.508 0,-13.658 -5.463,-26.632 -15.706,-35.783 -5.873,-5.326 -15.56901,-11.745 -21.57801,-15.16 -6.009,-3.414 -13.521,-12.974 -11.063,-22.124 z" style="fill:#7d4798;fill-opacity:0.921569;stroke:#591e73;stroke-opacity:0.921569"/><path inkscape:connector-curvature="0" id="path2540" d="m 251.539,140.80177 c -1.229,6.283 -2.595,17.618 -8.058,21.852 -2.322,1.638 -4.644,3.278 -7.102,4.916 -9.833,6.693 -19.667,12.974 -24.173,29.09 -0.956,3.415 -0.136,7.102 0.684,10.516 2.458,9.833 9.423,20.486 14.886,26.769 0,0.273 1.093,0.956 1.093,1.229 4.507,5.327 5.873,6.829 22.944,10.652 l -0.41,1.913 c -10.243,-2.731 -18.71,-5.189 -24.037,-11.336 0,-0.136 -0.956,-1.093 -0.956,-1.093 -5.736,-6.556 -12.702,-17.481 -15.296,-27.724 -0.956,-4.098 -1.775,-7.238 -0.683,-11.473 4.643,-16.661 14.75,-23.217 24.993,-30.182 2.322,-1.502 5.053,-2.869 7.238,-4.644 4.233,-3.14 6.554,-12.701 8.877,-20.485 z" style="fill:#7d4798;fill-opacity:0.921569;stroke:#591e73;stroke-opacity:0.921569"/><path inkscape:connector-curvature="0" id="path2542" d="m 255.90625,166.74951 c 0.137,7.102 -0.55625,10.66475 1.21875,15.71875 1.092,3.004 4.782,7.1015 5.875,11.0625 1.502,5.327 3.138,11.19901 3,14.75001 0,4.09799 -0.25625,11.74249 -2.03125,19.93749 -1.35362,6.77108 -4.47323,12.58153 -9.71875,15.875 -5.37327,-1.10644 -11.68224,-2.99521 -15.40625,-6.1875 -7.238,-6.282 -13.64875,-16.7865 -14.46875,-25.9375 -0.682,-7.51099 6.27275,-18.5885 15.96875,-24.1875 8.194,-4.78 10.1,-10.22775 11.875,-18.96875 -2.458,7.648 -4.7665,14.05925 -12.6875,18.15625 -11.472,6.009 -17.3585,16.09626 -16.8125,25.65625 0.819,12.291 5.7415,20.6195 15.4375,27.3125 4.097,2.868 11.75125,5.89875 16.53125,6.71875 v -0.625 c 3.62493,-0.67888 8.31818,-6.63267 10.65625,-14.6875 2.049,-7.238 2.85675,-16.502 2.71875,-22.37499 -0.137,-3.414 -1.643,-10.80801 -4.375,-17.50001 -1.502,-3.687 -3.8095,-7.37375 -5.3125,-9.96875 -1.637,-2.597 -1.64875,-8.195 -2.46875,-14.75 z" style="fill:#7d4798;fill-opacity:0.921569;stroke:#591e73;stroke-opacity:0.921569"/><path inkscape:connector-curvature="0" id="path2544" d="m 255.09375,193.53076 c 0.136,4.78 2.056,10.90451 2.875,17.18751 0.684,4.64399 0.387,9.30824 0.25,13.40624 -0.13495,4.74323 -1.7152,13.24218 -3.875,17.375 -2.03673,-0.93403 -2.83294,-1.99922 -4.15625,-3.71875 -1.638,-2.322 -2.75075,-4.644 -3.84375,-7.375 -0.819,-2.049 -1.7765,-4.394 -2.1875,-7.125 -0.546,-4.097 -0.393,-10.5065 4.25,-17.06249 3.551,-5.19001 4.36475,-5.58476 5.59375,-11.59376 -1.64,5.326 -2.8625,5.869 -6.6875,10.37501 -4.233,4.917 -4.9375,12.15924 -4.9375,18.03124 0,2.459 0.9805,5.18725 1.9375,7.78125 1.092,2.732 2.02925,5.452 3.53125,7.5 2.25796,3.32082 5.14798,5.20922 6.5625,5.5625 0.009,0.002 0.022,-0.002 0.0312,0 0.0303,0.007 0.0649,0.0255 0.0937,0.0312 v -0.15625 c 2.64982,-2.95437 4.24444,-5.88934 4.78125,-8.84375 0.683,-3.551 0.84,-7.10975 1.25,-11.34375 0.409,-3.551 0.11225,-8.334 -0.84375,-13.24999 -1.365,-6.146 -3.669,-12.41226 -4.625,-16.78126 z" style="fill:#7d4798;fill-opacity:0.921569;stroke:#591e73;stroke-opacity:0.921569"/><path inkscape:connector-curvature="0" id="path2550" d="m 255.499,135.06577 c 0.137,7.101 0.683,20.35 2.595,25.539 0.546,1.775 5.599,9.56 9.149,18.983 2.459,6.556 3.005,12.565 3.415,14.34 1.639,7.785 -0.41,20.896 -3.142,33.324 -1.365,6.692 -6.009,15.023 -11.335,18.301 l -1.092,1.912 c 3.005,-0.137 10.379,-7.375 12.974,-16.389 4.371,-15.296 6.146,-22.398 4.098,-39.333 -0.273,-1.64 -0.956,-7.238 -3.551,-13.248 -3.824,-9.151 -9.287,-17.891 -9.969,-19.667 -1.23,-2.867 -2.869,-15.295 -3.142,-23.762 z" style="fill:#7d4798;fill-opacity:0.921569;stroke:#591e73;stroke-opacity:0.921569"/><path inkscape:connector-curvature="0" id="path2552" d="m 258.06151,125.35303 c -0.40515,7.29812 -0.51351,9.98574 0.85149,15.31174 1.502,5.873 9.151,14.34 12.292,24.037 6.009,18.574 4.507,42.884 0.136,61.867 -1.638,6.691 -9.424,16.389 -17.208,19.529 l 5.736,1.366 c 3.141,-0.137 11.198,-7.648 14.34,-16.252 5.052,-13.521 6.009,-29.636 3.96,-46.571 -0.137,-1.639 -2.869,-16.252 -5.463,-22.398 -3.688,-9.15 -10.244,-17.345 -10.926,-19.119 -1.228,-3.005 -3.92651,-9.24362 -3.71849,-17.77074 z" style="fill:#7d4798;fill-opacity:0.921569;stroke:#591e73;stroke-opacity:0.921569"/><rect id="rect2556" y="120.21686" x="253.71959" height="126.01891" width="0.550412" style="fill:#7d4798;fill-opacity:0.921569;stroke:#591e73;stroke-opacity:0.921569"/></g></g><g transform="matrix(0.40747165,0,0,0.40747165,607.4267,236.32821)" id="g4969" style="stroke:#591e73;stroke-opacity:0.921569"><path inkscape:connector-curvature="0" style="fill:#591f73;fill-opacity:0.921569;stroke:#591e73;stroke-opacity:0.921569" id="path4951" d="m 231.68397,121.4025 -4.917,19.529 c 6.965,-13.793 18.027,-24.172 30.729,-33.323 -9.287,10.789 -17.754,21.579 -22.944,32.368 8.741,-12.292 20.486,-19.12 33.733,-23.627 -17.618,15.706 -31.60228,32.55928 -42.25528,49.49428 l -8.467,-3.687 c 1.501,-13.521 6.60928,-27.36928 14.12128,-40.75428 z"/><g transform="translate(-32.829031,43.424729)" id="g4967" style="display:inline;fill:#7d4798;fill-opacity:0.921569;stroke:#591e73;stroke-opacity:0.921569"><path style="fill:#7d4798;fill-opacity:0.921569;stroke:#591e73;stroke-opacity:0.921569" d="m 255.226,120.58877 12.018,1.639 c -3.551,11.745 6.966,19.939 10.38,21.852 7.64801,4.234 15.02301,8.604 20.89601,13.93 11.063,10.106 17.345,24.31 17.345,39.333 0,14.886 -6.829,29.226 -18.301,38.786 -10.789,9.014 -25.67501,12.838 -40.15201,12.838 -9.014,0 -17.072,-0.409 -25.812,-3.278 -19.939,-6.692 -34.826,-23.763 -36.055,-44.25 -1.093,-15.979 2.458,-28.134 14.887,-40.835 6.418,-6.692 19.393,-14.34 28.271,-20.486 4.371,-3.005 9.014,-11.473 0.136,-27.451 l 1.776,-1.366 13.15659,8.81203 -11.10759,-4.57803 c 0.956,1.366 3.551,7.512 4.098,9.287 1.229,5.053 0.683,9.971 -0.41,12.155 -5.599,10.107 -15.159,12.838 -22.124,18.574 -12.292,10.106 -25.676,18.164 -24.174,45.888 0.683,13.657 11.336,30.319 27.314,38.104 9.014,4.371 19.394,6.146 29.91,6.692 9.423,0.41 27.45101,-5.19 37.28401,-13.384 10.516,-8.74 16.389,-21.988 16.389,-35.508 0,-13.658 -5.463,-26.632 -15.706,-35.783 -5.873,-5.326 -15.56901,-11.745 -21.57801,-15.16 -6.009,-3.414 -13.521,-12.974 -11.063,-22.124 z" id="path4953" inkscape:connector-curvature="0"/><path style="fill:#7d4798;fill-opacity:0.921569;stroke:#591e73;stroke-opacity:0.921569" d="m 251.539,140.80177 c -1.229,6.283 -2.595,17.618 -8.058,21.852 -2.322,1.638 -4.644,3.278 -7.102,4.916 -9.833,6.693 -19.667,12.974 -24.173,29.09 -0.956,3.415 -0.136,7.102 0.684,10.516 2.458,9.833 9.423,20.486 14.886,26.769 0,0.273 1.093,0.956 1.093,1.229 4.507,5.327 5.873,6.829 22.944,10.652 l -0.41,1.913 c -10.243,-2.731 -18.71,-5.189 -24.037,-11.336 0,-0.136 -0.956,-1.093 -0.956,-1.093 -5.736,-6.556 -12.702,-17.481 -15.296,-27.724 -0.956,-4.098 -1.775,-7.238 -0.683,-11.473 4.643,-16.661 14.75,-23.217 24.993,-30.182 2.322,-1.502 5.053,-2.869 7.238,-4.644 4.233,-3.14 6.554,-12.701 8.877,-20.485 z" id="path4955" inkscape:connector-curvature="0"/><path style="fill:#7d4798;fill-opacity:0.921569;stroke:#591e73;stroke-opacity:0.921569" d="m 255.90625,166.74951 c 0.137,7.102 -0.55625,10.66475 1.21875,15.71875 1.092,3.004 4.782,7.1015 5.875,11.0625 1.502,5.327 3.138,11.19901 3,14.75001 0,4.09799 -0.25625,11.74249 -2.03125,19.93749 -1.35362,6.77108 -4.47323,12.58153 -9.71875,15.875 -5.37327,-1.10644 -11.68224,-2.99521 -15.40625,-6.1875 -7.238,-6.282 -13.64875,-16.7865 -14.46875,-25.9375 -0.682,-7.51099 6.27275,-18.5885 15.96875,-24.1875 8.194,-4.78 10.1,-10.22775 11.875,-18.96875 -2.458,7.648 -4.7665,14.05925 -12.6875,18.15625 -11.472,6.009 -17.3585,16.09626 -16.8125,25.65625 0.819,12.291 5.7415,20.6195 15.4375,27.3125 4.097,2.868 11.75125,5.89875 16.53125,6.71875 v -0.625 c 3.62493,-0.67888 8.31818,-6.63267 10.65625,-14.6875 2.049,-7.238 2.85675,-16.502 2.71875,-22.37499 -0.137,-3.414 -1.643,-10.80801 -4.375,-17.50001 -1.502,-3.687 -3.8095,-7.37375 -5.3125,-9.96875 -1.637,-2.597 -1.64875,-8.195 -2.46875,-14.75 z" id="path4957" inkscape:connector-curvature="0"/><path style="fill:#7d4798;fill-opacity:0.921569;stroke:#591e73;stroke-opacity:0.921569" d="m 255.09375,193.53076 c 0.136,4.78 2.056,10.90451 2.875,17.18751 0.684,4.64399 0.387,9.30824 0.25,13.40624 -0.13495,4.74323 -1.7152,13.24218 -3.875,17.375 -2.03673,-0.93403 -2.83294,-1.99922 -4.15625,-3.71875 -1.638,-2.322 -2.75075,-4.644 -3.84375,-7.375 -0.819,-2.049 -1.7765,-4.394 -2.1875,-7.125 -0.546,-4.097 -0.393,-10.5065 4.25,-17.06249 3.551,-5.19001 4.36475,-5.58476 5.59375,-11.59376 -1.64,5.326 -2.8625,5.869 -6.6875,10.37501 -4.233,4.917 -4.9375,12.15924 -4.9375,18.03124 0,2.459 0.9805,5.18725 1.9375,7.78125 1.092,2.732 2.02925,5.452 3.53125,7.5 2.25796,3.32082 5.14798,5.20922 6.5625,5.5625 0.009,0.002 0.022,-0.002 0.0312,0 0.0303,0.007 0.0649,0.0255 0.0937,0.0312 v -0.15625 c 2.64982,-2.95437 4.24444,-5.88934 4.78125,-8.84375 0.683,-3.551 0.84,-7.10975 1.25,-11.34375 0.409,-3.551 0.11225,-8.334 -0.84375,-13.24999 -1.365,-6.146 -3.669,-12.41226 -4.625,-16.78126 z" id="path4959" inkscape:connector-curvature="0"/><path style="fill:#7d4798;fill-opacity:0.921569;stroke:#591e73;stroke-opacity:0.921569" d="m 255.499,135.06577 c 0.137,7.101 0.683,20.35 2.595,25.539 0.546,1.775 5.599,9.56 9.149,18.983 2.459,6.556 3.005,12.565 3.415,14.34 1.639,7.785 -0.41,20.896 -3.142,33.324 -1.365,6.692 -6.009,15.023 -11.335,18.301 l -1.092,1.912 c 3.005,-0.137 10.379,-7.375 12.974,-16.389 4.371,-15.296 6.146,-22.398 4.098,-39.333 -0.273,-1.64 -0.956,-7.238 -3.551,-13.248 -3.824,-9.151 -9.287,-17.891 -9.969,-19.667 -1.23,-2.867 -2.869,-15.295 -3.142,-23.762 z" id="path4961" inkscape:connector-curvature="0"/><path style="fill:#7d4798;fill-opacity:0.921569;stroke:#591e73;stroke-opacity:0.921569" d="m 258.06151,125.35303 c -0.40515,7.29812 -0.51351,9.98574 0.85149,15.31174 1.502,5.873 9.151,14.34 12.292,24.037 6.009,18.574 4.507,42.884 0.136,61.867 -1.638,6.691 -9.424,16.389 -17.208,19.529 l 5.736,1.366 c 3.141,-0.137 11.198,-7.648 14.34,-16.252 5.052,-13.521 6.009,-29.636 3.96,-46.571 -0.137,-1.639 -2.869,-16.252 -5.463,-22.398 -3.688,-9.15 -10.244,-17.345 -10.926,-19.119 -1.228,-3.005 -3.92651,-9.24362 -3.71849,-17.77074 z" id="path4963" inkscape:connector-curvature="0"/><rect style="fill:#7d4798;fill-opacity:0.921569;stroke:#591e73;stroke-opacity:0.921569" width="0.550412" height="126.01891" x="253.71959" y="120.21686" id="rect4965"/></g></g><g transform="matrix(0.40747165,0,0,0.40747165,854.06756,166.19857)" id="g4997" style="stroke:#591e73;stroke-opacity:0.921569"><path inkscape:connector-curvature="0" style="fill:#591f73;fill-opacity:0.921569;stroke:#591e73;stroke-opacity:0.921569" id="path4979" d="m 231.68397,121.4025 -4.917,19.529 c 6.965,-13.793 18.027,-24.172 30.729,-33.323 -9.287,10.789 -17.754,21.579 -22.944,32.368 8.741,-12.292 20.486,-19.12 33.733,-23.627 -17.618,15.706 -31.60228,32.55928 -42.25528,49.49428 l -8.467,-3.687 c 1.501,-13.521 6.60928,-27.36928 14.12128,-40.75428 z"/><g transform="translate(-32.829031,43.424729)" id="g4995" style="display:inline;fill:#7d4798;fill-opacity:0.921569;stroke:#591e73;stroke-opacity:0.921569"><path style="fill:#7d4798;fill-opacity:0.921569;stroke:#591e73;stroke-opacity:0.921569" d="m 255.226,120.58877 12.018,1.639 c -3.551,11.745 6.966,19.939 10.38,21.852 7.64801,4.234 15.02301,8.604 20.89601,13.93 11.063,10.106 17.345,24.31 17.345,39.333 0,14.886 -6.829,29.226 -18.301,38.786 -10.789,9.014 -25.67501,12.838 -40.15201,12.838 -9.014,0 -17.072,-0.409 -25.812,-3.278 -19.939,-6.692 -34.826,-23.763 -36.055,-44.25 -1.093,-15.979 2.458,-28.134 14.887,-40.835 6.418,-6.692 19.393,-14.34 28.271,-20.486 4.371,-3.005 9.014,-11.473 0.136,-27.451 l 1.776,-1.366 13.15659,8.81203 -11.10759,-4.57803 c 0.956,1.366 3.551,7.512 4.098,9.287 1.229,5.053 0.683,9.971 -0.41,12.155 -5.599,10.107 -15.159,12.838 -22.124,18.574 -12.292,10.106 -25.676,18.164 -24.174,45.888 0.683,13.657 11.336,30.319 27.314,38.104 9.014,4.371 19.394,6.146 29.91,6.692 9.423,0.41 27.45101,-5.19 37.28401,-13.384 10.516,-8.74 16.389,-21.988 16.389,-35.508 0,-13.658 -5.463,-26.632 -15.706,-35.783 -5.873,-5.326 -15.56901,-11.745 -21.57801,-15.16 -6.009,-3.414 -13.521,-12.974 -11.063,-22.124 z" id="path4981" inkscape:connector-curvature="0"/><path style="fill:#7d4798;fill-opacity:0.921569;stroke:#591e73;stroke-opacity:0.921569" d="m 251.539,140.80177 c -1.229,6.283 -2.595,17.618 -8.058,21.852 -2.322,1.638 -4.644,3.278 -7.102,4.916 -9.833,6.693 -19.667,12.974 -24.173,29.09 -0.956,3.415 -0.136,7.102 0.684,10.516 2.458,9.833 9.423,20.486 14.886,26.769 0,0.273 1.093,0.956 1.093,1.229 4.507,5.327 5.873,6.829 22.944,10.652 l -0.41,1.913 c -10.243,-2.731 -18.71,-5.189 -24.037,-11.336 0,-0.136 -0.956,-1.093 -0.956,-1.093 -5.736,-6.556 -12.702,-17.481 -15.296,-27.724 -0.956,-4.098 -1.775,-7.238 -0.683,-11.473 4.643,-16.661 14.75,-23.217 24.993,-30.182 2.322,-1.502 5.053,-2.869 7.238,-4.644 4.233,-3.14 6.554,-12.701 8.877,-20.485 z" id="path4983" inkscape:connector-curvature="0"/><path style="fill:#7d4798;fill-opacity:0.921569;stroke:#591e73;stroke-opacity:0.921569" d="m 255.90625,166.74951 c 0.137,7.102 -0.55625,10.66475 1.21875,15.71875 1.092,3.004 4.782,7.1015 5.875,11.0625 1.502,5.327 3.138,11.19901 3,14.75001 0,4.09799 -0.25625,11.74249 -2.03125,19.93749 -1.35362,6.77108 -4.47323,12.58153 -9.71875,15.875 -5.37327,-1.10644 -11.68224,-2.99521 -15.40625,-6.1875 -7.238,-6.282 -13.64875,-16.7865 -14.46875,-25.9375 -0.682,-7.51099 6.27275,-18.5885 15.96875,-24.1875 8.194,-4.78 10.1,-10.22775 11.875,-18.96875 -2.458,7.648 -4.7665,14.05925 -12.6875,18.15625 -11.472,6.009 -17.3585,16.09626 -16.8125,25.65625 0.819,12.291 5.7415,20.6195 15.4375,27.3125 4.097,2.868 11.75125,5.89875 16.53125,6.71875 v -0.625 c 3.62493,-0.67888 8.31818,-6.63267 10.65625,-14.6875 2.049,-7.238 2.85675,-16.502 2.71875,-22.37499 -0.137,-3.414 -1.643,-10.80801 -4.375,-17.50001 -1.502,-3.687 -3.8095,-7.37375 -5.3125,-9.96875 -1.637,-2.597 -1.64875,-8.195 -2.46875,-14.75 z" id="path4985" inkscape:connector-curvature="0"/><path style="fill:#7d4798;fill-opacity:0.921569;stroke:#591e73;stroke-opacity:0.921569" d="m 255.09375,193.53076 c 0.136,4.78 2.056,10.90451 2.875,17.18751 0.684,4.64399 0.387,9.30824 0.25,13.40624 -0.13495,4.74323 -1.7152,13.24218 -3.875,17.375 -2.03673,-0.93403 -2.83294,-1.99922 -4.15625,-3.71875 -1.638,-2.322 -2.75075,-4.644 -3.84375,-7.375 -0.819,-2.049 -1.7765,-4.394 -2.1875,-7.125 -0.546,-4.097 -0.393,-10.5065 4.25,-17.06249 3.551,-5.19001 4.36475,-5.58476 5.59375,-11.59376 -1.64,5.326 -2.8625,5.869 -6.6875,10.37501 -4.233,4.917 -4.9375,12.15924 -4.9375,18.03124 0,2.459 0.9805,5.18725 1.9375,7.78125 1.092,2.732 2.02925,5.452 3.53125,7.5 2.25796,3.32082 5.14798,5.20922 6.5625,5.5625 0.009,0.002 0.022,-0.002 0.0312,0 0.0303,0.007 0.0649,0.0255 0.0937,0.0312 v -0.15625 c 2.64982,-2.95437 4.24444,-5.88934 4.78125,-8.84375 0.683,-3.551 0.84,-7.10975 1.25,-11.34375 0.409,-3.551 0.11225,-8.334 -0.84375,-13.24999 -1.365,-6.146 -3.669,-12.41226 -4.625,-16.78126 z" id="path4987" inkscape:connector-curvature="0"/><path style="fill:#7d4798;fill-opacity:0.921569;stroke:#591e73;stroke-opacity:0.921569" d="m 255.499,135.06577 c 0.137,7.101 0.683,20.35 2.595,25.539 0.546,1.775 5.599,9.56 9.149,18.983 2.459,6.556 3.005,12.565 3.415,14.34 1.639,7.785 -0.41,20.896 -3.142,33.324 -1.365,6.692 -6.009,15.023 -11.335,18.301 l -1.092,1.912 c 3.005,-0.137 10.379,-7.375 12.974,-16.389 4.371,-15.296 6.146,-22.398 4.098,-39.333 -0.273,-1.64 -0.956,-7.238 -3.551,-13.248 -3.824,-9.151 -9.287,-17.891 -9.969,-19.667 -1.23,-2.867 -2.869,-15.295 -3.142,-23.762 z" id="path4989" inkscape:connector-curvature="0"/><path style="fill:#7d4798;fill-opacity:0.921569;stroke:#591e73;stroke-opacity:0.921569" d="m 258.06151,125.35303 c -0.40515,7.29812 -0.51351,9.98574 0.85149,15.31174 1.502,5.873 9.151,14.34 12.292,24.037 6.009,18.574 4.507,42.884 0.136,61.867 -1.638,6.691 -9.424,16.389 -17.208,19.529 l 5.736,1.366 c 3.141,-0.137 11.198,-7.648 14.34,-16.252 5.052,-13.521 6.009,-29.636 3.96,-46.571 -0.137,-1.639 -2.869,-16.252 -5.463,-22.398 -3.688,-9.15 -10.244,-17.345 -10.926,-19.119 -1.228,-3.005 -3.92651,-9.24362 -3.71849,-17.77074 z" id="path4991" inkscape:connector-curvature="0"/><rect style="fill:#7d4798;fill-opacity:0.921569;stroke:#591e73;stroke-opacity:0.921569" width="0.550412" height="126.01891" x="253.71959" y="120.21686" id="rect4993"/></g></g><text id="text5047" y="209.84802" x="407.2132" style="font-style:normal;font-variant:normal;font-weight:normal;font-stretch:normal;font-size:22.0166px;line-height:0;font-family:Calibri;-inkscape-font-specification:Calibri;font-variant-ligatures:normal;font-variant-caps:normal;font-variant-numeric:normal;font-feature-settings:normal;text-align:start;letter-spacing:0px;word-spacing:0px;writing-mode:lr-tb;text-anchor:start;fill:#000000;fill-opacity:1;stroke:none;stroke-width:1.03203" xml:space="preserve"><tspan style="font-size:22.0166px;stroke-width:1.03203" y="209.84802" x="407.2132" id="tspan5045" sodipodi:role="line">Tor Client</tspan></text><text xml:space="preserve" style="font-style:normal;font-variant:normal;font-weight:normal;font-stretch:normal;font-size:22.0166px;line-height:0;font-family:Calibri;-inkscape-font-specification:Calibri;font-variant-ligatures:normal;font-variant-caps:normal;font-variant-numeric:normal;font-feature-settings:normal;text-align:start;letter-spacing:0px;word-spacing:0px;writing-mode:lr-tb;text-anchor:start;fill:#000000;fill-opacity:1;stroke:none;stroke-width:1.03203" x="642.93781" y="395.22845" id="text5051"><tspan sodipodi:role="line" id="tspan5049" x="642.93781" y="395.22845" style="font-size:22.0166px;stroke-width:1.03203">Middle relay</tspan><tspan id="tspan5069" sodipodi:role="line" x="642.93781" y="395.22845"/></text><text xml:space="preserve" style="font-style:normal;font-variant:normal;font-weight:normal;font-stretch:normal;font-size:22.0166px;line-height:0;font-family:Calibri;-inkscape-font-specification:Calibri;font-variant-ligatures:normal;font-variant-caps:normal;font-variant-numeric:normal;font-feature-settings:normal;text-align:start;letter-spacing:0px;word-spacing:0px;writing-mode:lr-tb;text-anchor:start;fill:#000000;fill-opacity:1;stroke:none;stroke-width:1.03203" x="1091.7229" y="268.22839" id="text5059"><tspan sodipodi:role="line" id="tspan5057" x="1091.7229" y="268.22839" style="font-size:22.0166px;stroke-width:1.03203">Destination</tspan></text><text id="text5063" y="27.409407" x="796.9021" style="font-style:normal;font-variant:normal;font-weight:normal;font-stretch:normal;font-size:22.0166px;line-height:0;font-family:Calibri;-inkscape-font-specification:Calibri;font-variant-ligatures:normal;font-variant-caps:normal;font-variant-numeric:normal;font-feature-settings:normal;text-align:start;letter-spacing:0px;word-spacing:0px;writing-mode:lr-tb;text-anchor:start;fill:#000000;fill-opacity:1;stroke:none;stroke-width:1.03203" xml:space="preserve"><tspan style="font-size:22.0166px;stroke-width:1.03203" y="27.409407" x="796.9021" id="tspan5061" sodipodi:role="line">Entry guard</tspan></text><text xml:space="preserve" style="font-style:normal;font-variant:normal;font-weight:normal;font-stretch:normal;font-size:22.0166px;line-height:1.25;font-family:Calibri;-inkscape-font-specification:Calibri;font-variant-ligatures:normal;font-variant-caps:normal;font-variant-numeric:normal;font-feature-settings:normal;text-align:center;letter-spacing:0px;word-spacing:0px;writing-mode:lr-tb;text-anchor:middle;fill:#000000;fill-opacity:1;stroke:none;stroke-width:1.03203" x="835.28601" y="205.4695" id="text5067"><tspan sodipodi:role="line" id="tspan5065" x="835.28601" y="205.4695" style="font-size:22.0166px;line-height:1.25;text-align:center;text-anchor:middle;stroke-width:1.03203">Tor</tspan><tspan id="tspan5077" sodipodi:role="line" x="835.28601" y="232.99025" style="font-size:22.0166px;line-height:1.25;text-align:center;text-anchor:middle;stroke-width:1.03203">Network</tspan></text><text id="text5075" y="395.22845" x="903.00903" style="font-style:normal;font-variant:normal;font-weight:normal;font-stretch:normal;font-size:22.0166px;line-height:0;font-family:Calibri;-inkscape-font-specification:Calibri;font-variant-ligatures:normal;font-variant-caps:normal;font-variant-numeric:normal;font-feature-settings:normal;text-align:start;letter-spacing:0px;word-spacing:0px;writing-mode:lr-tb;text-anchor:start;fill:#000000;fill-opacity:1;stroke:none;stroke-width:1.03203" xml:space="preserve"><tspan style="font-size:22.0166px;stroke-width:1.03203" y="395.22845" x="903.00903" id="tspan5071" sodipodi:role="line">Exit relay</tspan><tspan y="395.22845" x="903.00903" sodipodi:role="line" id="tspan5073"/></text><rect y="21.278008" x="956.67078" height="12.366679" width="38.046207" id="rect5029" style="opacity:0.92;fill:#008000;fill-opacity:0.921569;stroke:none;stroke-width:0.908806;stroke-linejoin:round;stroke-miterlimit:4;stroke-dasharray:none;stroke-dashoffset:0;stroke-opacity:0.921569"/><rect style="opacity:0.92;fill:#ff0000;fill-opacity:0.921569;stroke:none;stroke-width:0.908806;stroke-linejoin:round;stroke-miterlimit:4;stroke-dasharray:none;stroke-dashoffset:0;stroke-opacity:0.921569" id="rect5095" width="38.046207" height="12.366679" x="956.67078" y="48.110752"/><text xml:space="preserve" style="font-style:normal;font-variant:normal;font-weight:normal;font-stretch:normal;font-size:22.0166px;line-height:0;font-family:Calibri;-inkscape-font-specification:Calibri;font-variant-ligatures:normal;font-variant-caps:normal;font-variant-numeric:normal;font-feature-settings:normal;text-align:start;letter-spacing:0px;word-spacing:0px;writing-mode:lr-tb;text-anchor:start;fill:#000000;fill-opacity:1;stroke:none;stroke-width:1.03203" x="1005.3719" y="31.537521" id="text5099"><tspan sodipodi:role="line" id="tspan5097" x="1005.3719" y="31.537521" style="font-size:22.0166px;stroke-width:1.03203">Encrypted by Tor</tspan></text><text id="text5103" y="60.434322" x="1005.3719" style="font-style:normal;font-variant:normal;font-weight:normal;font-stretch:normal;font-size:22.0166px;line-height:0;font-family:Calibri;-inkscape-font-specification:Calibri;font-variant-ligatures:normal;font-variant-caps:normal;font-variant-numeric:normal;font-feature-settings:normal;text-align:start;letter-spacing:0px;word-spacing:0px;writing-mode:lr-tb;text-anchor:start;fill:#000000;fill-opacity:1;stroke:none;stroke-width:1.03203" xml:space="preserve"><tspan style="font-size:22.0166px;stroke-width:1.03203" y="60.434322" x="1005.3719" id="tspan5101" sodipodi:role="line">Not encrypted by Tor</tspan></text>
</g></svg>